#!OML:ASF F:\VICON\USERDATA\INSTALL\rory3\rory3.ASF
:FULLY-SPECIFIED
:DEGREES
3221
root 14.348 17.8346 -11.5119 -172.956 126.025 -528.228
lowerback 9.57249 1.55512 -2.07801
upperback 0.956585 1.84317 -0.533213
thorax -4.41917 0.953535 0.369706
lowerneck -12.1347 -1.61784 -11.09
upperneck 42.6341 2.65509 0.160862
head 17.8943 -0.201311 2.70456
rclavicle -3.50358e-014 1.27222e-014
rhumerus -36.3288 -13.773 -78.5904
rradius 29.9254
rwrist 7.14103
rhand -16.4534 7.777
rfingers 7.12502
rthumb 9.7627 -21.9767
lclavicle -3.50358e-014 1.27222e-014
lhumerus -36.3191 6.56426 83.5144
lradius 42.9529
lwrist -2.41935
lhand -21.2255 27.2348
lfingers 7.12502
lthumb 5.15664 57.152
rfemur -19.1681 -8.836 13.1026
rtibia 61.3232
rfoot -12.0661 -7.4303
rtoes 7.49589
lfemur -1.51704 -7.41803 -28.1564
ltibia 17.9544
lfoot -7.1398 -21.2668
ltoes 10.9985
3222
root 14.3559 17.8403 -11.4661 -172.966 125.236 -528.086
lowerback 9.57797 1.63006 -2.16355
upperback 1.07938 1.94168 -0.428658
thorax -4.30294 1.00375 0.515188
lowerneck -12.2346 -1.56223 -11.2865
upperneck 42.789 2.86974 0.186651
head 18.0007 -0.139243 2.79883
rclavicle 3.52843e-015 -3.97569e-015
rhumerus -36.2805 -13.7247 -78.5163
rradius 30.0477
rwrist 7.49837
rhand -15.7773 7.62839
rfingers 7.12502
rthumb 10.415 -22.0937
lclavicle 3.52843e-015 -3.97569e-015
lhumerus -36.1528 5.71872 82.9023
lradius 42.7753
lwrist -0.376562
lhand -21.7381 28.47
lfingers 7.12502
lthumb 4.66164 58.3987
rfemur -18.8606 -7.45606 12.7985
rtibia 60.7471
rfoot -12.9339 -5.60988
rtoes 4.57173
lfemur -1.3525 -7.27179 -27.9536
ltibia 18.1723
lfoot -6.98266 -22.057
ltoes 13.1647
3223
root 14.3581 17.844 -11.4217 -172.788 124.155 -527.86
lowerback 9.55539 1.64118 -2.19998
upperback 1.22546 1.95997 -0.374368
thorax -4.14166 1.01269 0.592896
lowerneck -12.5427 -1.60161 -11.4234
upperneck 42.9579 2.94424 0.216672
head 18.1832 -0.131233 2.86378
rclavicle -5.51627e-014 1.11319e-014
rhumerus -36.1163 -13.5918 -78.5727
rradius 30.303
rwrist 7.46659
rhand -15.3179 7.02074
rfingers 7.12502
rthumb 10.8581 -22.6786
lclavicle -5.51627e-014 1.11319e-014
lhumerus -36.065 6.85864 82.4423
lradius 42.4092
lwrist -0.431668
lhand -21.4826 28.175
lfingers 7.12502
lthumb 4.90838 58.0982
rfemur -18.619 -6.19838 12.5302
rtibia 60.0289
rfoot -13.7628 -3.6247
rtoes 1.07193
lfemur -1.35497 -7.50215 -27.7648
ltibia 18.4006
lfoot -6.87137 -22.7513
ltoes 14.3418
3224
root 14.3581 17.8438 -11.3786 -172.495 122.987 -527.574
lowerback 9.5134 1.6327 -2.22975
upperback 1.31874 1.95117 -0.342384
thorax -4.02295 1.00826 0.646846
lowerneck -12.6595 -1.61383 -11.4324
upperneck 42.9811 2.99366 0.193189
head 18.2277 -0.109629 2.86896
rclavicle 5.06901e-014 1.11319e-014
rhumerus -35.9689 -13.3803 -78.6598
rradius 30.4812
rwrist 7.19682
rhand -15.377 6.97323
rfingers 7.12502
rthumb 10.8011 -22.729
lclavicle 5.06901e-014 1.11319e-014
lhumerus -35.9954 7.90226 81.7975
lradius 41.9922
lwrist -0.30932
lhand -21.4703 27.6609
lfingers 7.12502
lthumb 4.92021 57.5838
rfemur -18.4715 -4.92724 12.2605
rtibia 59.1592
rfoot -14.4241 -1.56558
rtoes -2.01913
lfemur -1.41719 -7.88609 -27.5955
ltibia 18.5544
lfoot -6.59136 -23.4503
ltoes 14.4536
3225
root 14.3589 17.8401 -11.3372 -172.325 121.767 -527.329
lowerback 9.61735 1.62987 -2.15908
upperback 1.34689 1.95463 -0.312956
thorax -4.05025 1.00956 0.634797
lowerneck -12.5265 -1.66164 -11.4512
upperneck 42.9931 2.94817 0.189666
head 18.2051 -0.117419 2.86476
rclavicle -1.03368e-014 3.18055e-015
rhumerus -35.9385 -13.4723 -78.5978
rradius 30.4563
rwrist 7.28297
rhand -15.1946 7.2451
rfingers 7.12502
rthumb 10.9771 -22.4479
lclavicle -1.03368e-014 3.18055e-015
lhumerus -36.1151 8.41439 81.2744
lradius 41.682
lwrist -0.445285
lhand -22.294 28.3736
lfingers 7.12502
lthumb 4.12483 58.3135
rfemur -18.1897 -3.59077 11.9841
rtibia 58.1221
rfoot -15.0669 0.53703
rtoes -4.53328
lfemur -1.41217 -8.26306 -27.4067
ltibia 18.7336
lfoot -6.24601 -24.157
ltoes 14.8579
